<?xml version="1.0" standalone="no"?>
<!DOCTYPE svg PUBLIC "-//W3C//DTD SVG 20010904//EN"
 "http://www.w3.org/TR/2001/REC-SVG-20010904/DTD/svg10.dtd">
<svg version="1.0" xmlns="http://www.w3.org/2000/svg"
 width="512.000000pt" height="512.000000pt" viewBox="0 0 512.000000 512.000000"
 preserveAspectRatio="xMidYMid meet">

<g transform="translate(0.000000,512.000000) scale(0.100000,-0.100000)"
fill="#000000" stroke="none">
<path d="M2850 5090 c0 -3 5 -21 10 -40 15 -50 13 -187 -4 -241 -55 -178 -191
-333 -566 -649 -335 -281 -458 -415 -519 -565 -94 -233 41 -542 381 -871 82
-80 231 -206 298 -254 l35 -25 -24 40 c-111 183 -226 414 -306 614 -45 113
-49 184 -15 274 43 114 115 205 429 539 276 293 381 469 412 685 17 124 -14
280 -82 413 -29 57 -49 89 -49 80z"/>
<path d="M3545 4203 c-83 -12 -271 -57 -365 -89 -198 -66 -353 -157 -467 -273
-79 -81 -124 -151 -161 -253 -24 -65 -27 -87 -27 -198 0 -124 0 -126 38 -205
21 -44 74 -135 118 -202 106 -162 132 -227 127 -313 -5 -86 -49 -179 -125
-260 -30 -33 -50 -60 -45 -60 6 0 40 10 75 23 273 99 425 310 387 537 -10 57
-32 111 -105 256 -121 240 -134 311 -77 419 65 123 281 318 581 526 152 104
153 107 46 92z"/>
<path d="M3823 2539 c-61 -10 -139 -40 -202 -77 l-46 -27 90 -5 c192 -12 315
-122 315 -283 0 -182 -187 -448 -470 -669 -45 -35 -29 -35 95 -3 351 92 576
275 640 525 12 47 16 94 13 170 -3 92 -7 113 -34 171 -51 108 -140 177 -254
199 -59 11 -74 11 -147 -1z"/>
<path d="M1594 2529 c-319 -24 -571 -106 -620 -201 -49 -95 13 -178 176 -232
194 -64 417 -88 810 -89 385 0 668 23 1040 84 l185 30 130 99 c72 54 140 109
152 122 l23 24 -104 -18 c-323 -54 -738 -82 -1226 -82 -397 0 -515 7 -612 36
-52 15 -57 32 -22 69 44 46 186 106 374 158 44 12 -153 12 -306 0z"/>
<path d="M1574 1950 c-75 -24 -173 -86 -208 -133 -15 -19 -30 -52 -33 -72 -5
-33 -2 -40 43 -83 209 -201 1029 -255 1619 -106 113 28 306 91 318 103 5 5
-56 48 -133 96 l-142 88 -107 -26 c-234 -57 -425 -79 -692 -78 -282 0 -476 34
-550 94 -40 33 -43 58 -14 100 l24 37 -32 -1 c-18 0 -59 -9 -93 -19z"/>
<path d="M1745 1426 c-166 -41 -272 -175 -220 -276 108 -209 966 -252 1487
-74 85 29 228 94 228 104 0 4 -69 53 -153 108 l-152 102 -72 -25 c-297 -104
-863 -129 -999 -45 -42 26 -52 59 -29 94 17 26 17 26 -11 25 -16 0 -51 -6 -79
-13z"/>
<path d="M950 1145 c-199 -41 -338 -140 -356 -254 -13 -82 61 -187 187 -263
495 -300 2038 -345 2833 -84 282 93 435 206 467 346 11 46 -6 108 -39 144 -23
24 -123 96 -135 96 -2 0 1 -22 6 -49 37 -177 -190 -321 -627 -401 -268 -49
-421 -62 -796 -67 -472 -7 -803 20 -1103 91 -324 77 -429 202 -250 298 68 36
144 52 246 52 48 0 87 1 87 3 0 1 -39 24 -87 50 l-88 48 -140 2 c-87 1 -165
-3 -205 -12z"/>
<path d="M4390 639 c-276 -247 -755 -409 -1420 -480 -148 -16 -674 -16 -850 0
-268 24 -579 70 -757 111 -152 36 -124 17 77 -52 428 -146 862 -213 1365 -211
533 2 972 87 1286 249 165 85 268 179 319 289 29 62 47 135 33 135 -4 -1 -28
-19 -53 -41z"/>
</g>
</svg>
